<svg xmlns="http://www.w3.org/2000/svg" width="256" height="256" viewBox="0 0 100 100"><rect width="100" height="100" rx="20" fill="#1e1e2e"></rect><path d="M56.52 43.34L56.52 43.34L72.37 43.34Q77.22 43.52 78.31 45.86L78.31 45.86Q79.20 47.57 79.20 50.90L79.20 50.90L79.20 70.70Q79.20 73.58 76.69 76.19L76.69 76.19Q69.13 84.02 54.01 84.02L54.01 84.02Q40.59 84.02 30.70 73.90Q20.80 63.77 20.80 49.46Q20.80 35.15 30.88 25.57Q40.95 15.98 54.63 15.98L54.63 15.98Q65.25 15.98 74.70 23.00L74.70 23.00Q77.13 24.80 77.13 27.01Q77.13 29.21 75.06 32.09L75.06 32.09Q71.56 36.86 68.67 36.86L68.67 36.86Q66.97 36.86 63.19 34.39Q59.41 31.91 54.19 31.91L54.19 31.91Q47.34 31.91 42.03 36.73Q36.73 41.54 36.73 49.33Q36.73 57.11 42.13 62.56Q47.53 68 54.37 68L54.37 68Q59.31 68 63.27 66.38L63.27 66.38L63.27 56.57L56.16 56.57Q53.38 56.57 52.20 55.85Q51.04 55.13 50.67 53.74Q50.31 52.34 50.31 49.96Q50.31 47.57 50.72 46.13Q51.13 44.69 52.20 44.15L52.20 44.15Q53.83 43.34 56.52 43.34Z" fill="#cba6f7"></path></svg>